<?xml version="1.0" encoding="UTF-8" standalone="no"?>
<!-- Generator: Adobe Illustrator 12.0.1, SVG Export Plug-In . SVG Version: 6.00 Build 51448)  -->
<svg
   xmlns:dc="http://purl.org/dc/elements/1.1/"
   xmlns:cc="http://web.resource.org/cc/"
   xmlns:rdf="http://www.w3.org/1999/02/22-rdf-syntax-ns#"
   xmlns:svg="http://www.w3.org/2000/svg"
   xmlns="http://www.w3.org/2000/svg"
   xmlns:sodipodi="http://sodipodi.sourceforge.net/DTD/sodipodi-0.dtd"
   xmlns:inkscape="http://www.inkscape.org/namespaces/inkscape"
   version="1.1"
   id="Layer_1"
   width="570.838"
   height="278.425"
   viewBox="0 0 570.838 278.425"
   style="overflow:visible;enable-background:new 0 0 570.838 278.425;"
   xml:space="preserve"
   sodipodi:version="0.32"
   inkscape:version="0.45.1"
   sodipodi:docname="5-Methyl-5,6,7,8-tetrahydrofolat.svg"
   inkscape:output_extension="org.inkscape.output.svg.inkscape"
   sodipodi:docbase="C:\"><metadata
   id="metadata198"><rdf:RDF><cc:Work
       rdf:about=""><dc:format>image/svg+xml</dc:format><dc:type
         rdf:resource="http://purl.org/dc/dcmitype/StillImage" /></cc:Work></rdf:RDF></metadata><defs
   id="defs196" /><sodipodi:namedview
   inkscape:window-height="579"
   inkscape:window-width="801"
   inkscape:pageshadow="2"
   inkscape:pageopacity="0.0"
   guidetolerance="10.0"
   gridtolerance="10.0"
   objecttolerance="10.0"
   borderopacity="1.0"
   bordercolor="#666666"
   pagecolor="#ffffff"
   id="base"
   inkscape:zoom="1.2560481"
   inkscape:cx="285.41901"
   inkscape:cy="139.21249"
   inkscape:window-x="176"
   inkscape:window-y="176"
   inkscape:current-layer="Layer_1" />
<g
   id="g3"
   transform="matrix(0.95,0,0,0.95,14.287825,6.960625)">
	<path
   d="M 48.825,198.925 L 48.825,181.737 L 51.106,181.737 L 51.106,188.8 L 59.997,188.8 L 59.997,181.737 L 62.278,181.737 L 62.278,198.925 L 59.997,198.925 L 59.997,190.831 L 51.106,190.831 L 51.106,198.925 L 48.825,198.925 z "
   id="path5" />
	<path
   d="M 66.048,198.925 L 66.048,181.737 L 68.388,181.737 L 77.392,195.226 L 77.392,181.737 L 79.58,181.737 L 79.58,198.925 L 77.24,198.925 L 68.236,185.436 L 68.236,198.925 L 66.048,198.925 z "
   id="path7" />
</g>
<g
   id="g9"
   transform="matrix(0.95,0,0,0.95,14.287825,6.960625)">
	<path
   d="M 100.416,258.475 L 100.416,241.287 L 102.756,241.287 L 111.76,254.776 L 111.76,241.287 L 113.948,241.287 L 113.948,258.475 L 111.608,258.475 L 102.604,244.986 L 102.604,258.475 L 100.416,258.475 z "
   id="path11" />
</g>
<g
   id="g13"
   transform="matrix(0.95,0,0,0.95,14.287825,6.960625)">
	<path
   d="M 100.525,278.425 L 100.525,261.237 L 102.806,261.237 L 102.806,268.3 L 111.697,268.3 L 111.697,261.237 L 113.978,261.237 L 113.978,278.425 L 111.697,278.425 L 111.697,270.331 L 102.806,270.331 L 102.806,278.425 L 100.525,278.425 z "
   id="path15" />
</g>
<path
   d="M 84.291425,224.20092 L 83.483925,224.67592 L 82.676425,224.20092 L 82.676425,198.07592 L 84.291425,198.07592 L 84.291425,224.20092 z "
   id="polygon17" />
<path
   d="M 77.023927,217.36188 L 78.638927,217.36188 L 78.638927,221.39938 L 77.023927,221.39938 L 77.023927,217.36188 z "
   id="rect19" />
<path
   d="M 77.023927,207.71937 L 78.638927,207.71937 L 78.638927,211.75687 L 77.023927,211.75687 L 77.023927,207.71937 z "
   id="rect21" />
<path
   d="M 77.023927,198.07592 L 78.638927,198.07592 L 78.638927,202.11342 L 77.023927,202.11342 L 77.023927,198.07592 z "
   id="rect23" />
<path
   d="M 106.75893,237.16937 L 105.95143,238.59437 L 83.483925,225.62592 L 83.483925,224.67592 L 84.291425,224.20092 L 106.75893,237.16937 z "
   id="polygon25" />
<path
   d="M 109.60893,232.27592 L 108.80143,233.70092 L 105.28643,231.65842 L 106.09393,230.28187 L 109.60893,232.27592 z "
   id="polygon27" />
<path
   d="M 101.34393,227.52592 L 100.53643,228.90437 L 97.021425,226.90842 L 97.828925,225.48342 L 101.34393,227.52592 z "
   id="polygon29" />
<path
   d="M 93.078925,222.72937 L 92.271425,224.15437 L 88.756425,222.11187 L 89.563925,220.73342 L 93.078925,222.72937 z "
   id="polygon31" />
<path
   d="M 147.98893,224.20092 L 148.79643,224.67592 L 148.79643,225.62592 L 126.28143,238.64187 L 125.47393,237.21687 L 147.98893,224.20092 z "
   id="polygon33" />
<path
   d="M 147.98893,187.43687 L 148.79643,186.96187 L 149.60393,187.43687 L 149.60393,224.20092 L 148.79643,224.67592 L 147.98893,224.20092 L 147.98893,187.43687 z "
   id="polygon35" />
<path
   d="M 142.33642,190.23842 L 143.95142,190.23842 L 143.95142,221.39937 L 142.33642,221.39937 L 142.33642,190.23842 z "
   id="rect37" />
<path
   d="M 116.16393,169.05437 L 116.16393,167.20092 L 148.79643,186.05842 L 148.79643,186.96187 L 147.98893,187.43687 L 116.16393,169.05437 z "
   id="polygon39" />
<path
   d="M 93.601425,182.06937 L 92.793925,180.69187 L 116.16393,167.20092 L 116.16393,169.05437 L 93.601425,182.06937 z "
   id="polygon41" />
<g
   id="g43"
   transform="matrix(0.95,0,0,0.95,14.287825,6.960625)">
	<path
   d="M 169.166,258.475 L 169.166,241.287 L 171.506,241.287 L 180.51,254.776 L 180.51,241.287 L 182.698,241.287 L 182.698,258.475 L 180.358,258.475 L 171.354,244.986 L 171.354,258.475 L 169.166,258.475 z "
   id="path45" />
</g>
<g
   id="g47"
   transform="matrix(0.95,0,0,0.95,14.287825,6.960625)">
	<path
   d="M 169.275,278.425 L 169.275,261.237 L 171.556,261.237 L 171.556,268.3 L 180.447,268.3 L 180.447,261.237 L 182.728,261.237 L 182.728,278.425 L 180.447,278.425 L 180.447,270.331 L 171.556,270.331 L 171.556,278.425 L 169.275,278.425 z "
   id="path49" />
</g>
<g
   id="g51"
   transform="matrix(0.95,0,0,0.95,14.287825,6.960625)">
	<path
   d="M 169.166,179.125 L 169.166,161.937 L 171.506,161.937 L 180.51,175.426 L 180.51,161.937 L 182.698,161.937 L 182.698,179.125 L 180.358,179.125 L 171.354,165.636 L 171.354,179.125 L 169.166,179.125 z "
   id="path53" />
</g>
<path
   d="M 172.07143,237.16937 L 171.26393,238.59437 L 148.79643,225.62592 L 148.79643,224.67592 L 149.60393,224.20092 L 172.07143,237.16937 z "
   id="polygon55" />
<path
   d="M 213.30143,224.20092 L 214.91643,225.15092 L 191.59393,238.64187 L 190.78643,237.21687 L 213.30143,224.20092 z "
   id="polygon57" />
<path
   d="M 213.30143,187.43687 L 214.10893,186.96187 L 214.91643,187.48342 L 214.91643,225.15092 L 213.30143,224.20092 L 213.30143,187.43687 z "
   id="polygon59" />
<path
   d="M 190.78643,174.42092 L 191.59393,173.04437 L 214.06143,186.01187 L 214.10893,186.96187 L 213.30143,187.43687 L 190.78643,174.42092 z "
   id="polygon61" />
<path
   d="M 149.60393,187.43687 L 148.79643,186.96187 L 148.79643,186.05842 L 171.26393,173.09187 L 172.07143,174.46937 L 149.60393,187.43687 z "
   id="polygon63" />
<path
   d="M 245.93393,164.30437 L 247.54893,171.76187 L 214.91643,187.48342 L 214.10893,186.96187 L 214.06143,186.01187 L 245.93393,164.30437 z "
   id="polygon65" />
<g
   id="g67"
   transform="matrix(0.95,0,0,0.95,14.287825,6.960625)">
	<path
   d="M 98.994,131.11 C 98.994,128.257 99.76,126.025 101.292,124.412 C 102.824,122.798 104.802,121.991 107.225,121.991 C 108.812,121.991 110.242,122.37 111.516,123.128 C 112.79,123.887 113.761,124.943 114.43,126.299 C 115.099,127.655 115.432,129.193 115.432,130.911 C 115.432,132.654 115.08,134.213 114.377,135.588 C 113.674,136.963 112.677,138.005 111.387,138.712 C 110.097,139.419 108.706,139.773 107.213,139.773 C 105.595,139.773 104.149,139.382 102.875,138.601 C 101.601,137.82 100.636,136.752 99.979,135.401 C 99.322,134.05 98.994,132.619 98.994,131.11 z M 101.338,131.139 C 101.338,133.209 101.895,134.84 103.009,136.032 C 104.123,137.224 105.521,137.819 107.201,137.819 C 108.913,137.819 110.322,137.217 111.429,136.014 C 112.535,134.811 113.088,133.104 113.088,130.893 C 113.088,129.495 112.852,128.274 112.379,127.231 C 111.906,126.188 111.214,125.379 110.303,124.805 C 109.392,124.231 108.37,123.944 107.237,123.944 C 105.627,123.944 104.241,124.497 103.08,125.602 C 101.919,126.707 101.338,128.553 101.338,131.139 z "
   id="path69" />
</g>
<path
   d="M 112.50643,141.88342 L 114.12143,141.88342 L 114.12143,169.76592 L 112.50643,169.76592 L 112.50643,141.88342 z "
   id="rect71" />
<path
   d="M 118.15893,141.88342 L 119.77393,141.88342 L 119.77393,169.76592 L 118.15893,169.76592 L 118.15893,141.88342 z "
   id="rect73" />
<g
   id="g75"
   transform="matrix(0.95,0,0,0.95,14.287825,6.960625)">
	<path
   d="M 0,255.875 L 0,238.687 L 2.281,238.687 L 2.281,245.75 L 11.172,245.75 L 11.172,238.687 L 13.453,238.687 L 13.453,255.875 L 11.172,255.875 L 11.172,247.781 L 2.281,247.781 L 2.281,255.875 L 0,255.875 z "
   id="path77" />
</g>
<g
   id="g79"
   transform="matrix(0.95,0,0,0.95,14.287825,6.960625)">
	<path
   d="M 24.774,258.86 L 24.774,260.376 L 16.243,260.376 C 16.231,259.995 16.293,259.629 16.429,259.277 C 16.647,258.697 16.996,258.126 17.477,257.564 C 17.957,257.002 18.647,256.353 19.547,255.617 C 20.943,254.464 21.889,253.553 22.387,252.883 C 22.885,252.213 23.134,251.578 23.134,250.98 C 23.134,250.354 22.909,249.827 22.459,249.396 C 22.009,248.966 21.422,248.751 20.699,248.751 C 19.933,248.751 19.322,248.98 18.863,249.439 C 18.404,249.898 18.172,250.533 18.166,251.344 L 16.541,251.172 C 16.652,249.956 17.072,249.03 17.801,248.394 C 18.529,247.756 19.507,247.438 20.735,247.438 C 21.974,247.438 22.955,247.781 23.677,248.467 C 24.399,249.153 24.76,250.003 24.76,251.017 C 24.76,251.533 24.654,252.04 24.443,252.538 C 24.232,253.036 23.88,253.561 23.39,254.112 C 22.899,254.663 22.086,255.419 20.95,256.38 C 19.999,257.178 19.388,257.718 19.117,258.003 C 18.846,258.286 18.621,258.572 18.444,258.859 L 24.774,258.859 L 24.774,258.86 z "
   id="path81" />
</g>
<g
   id="g83"
   transform="matrix(0.95,0,0,0.95,14.287825,6.960625)">
	<path
   d="M 27.773,255.875 L 27.773,238.687 L 30.113,238.687 L 39.117,252.176 L 39.117,238.687 L 41.305,238.687 L 41.305,255.875 L 38.965,255.875 L 29.961,242.386 L 29.961,255.875 L 27.773,255.875 z "
   id="path85" />
</g>
<path
   d="M 59.591425,239.44937 L 58.783925,238.02437 L 82.676425,224.20092 L 83.483925,224.67592 L 83.483925,225.62592 L 59.591425,239.44937 z "
   id="polygon87" />
<path
   d="M 56.741425,234.55687 L 55.933925,233.13187 L 59.448925,231.13687 L 60.256425,232.51342 L 56.741425,234.55687 z "
   id="polygon89" />
<path
   d="M 62.726425,231.08842 L 61.918925,229.66342 L 65.433925,227.66937 L 66.241425,229.04592 L 62.726425,231.08842 z "
   id="polygon91" />
<path
   d="M 68.758925,227.62092 L 67.951425,226.19592 L 71.466425,224.20092 L 72.273925,225.57937 L 68.758925,227.62092 z "
   id="polygon93" />
<path
   d="M 74.743925,224.15437 L 73.936425,222.72937 L 77.451425,220.73342 L 78.258925,222.11187 L 74.743925,224.15437 z "
   id="polygon95" />
<path
   d="M 278.51893,111.15187 L 279.32643,111.62687 L 279.32643,112.52937 L 256.81143,125.54437 L 256.00393,124.16687 L 278.51893,111.15187 z "
   id="polygon97" />
<path
   d="M 312.00643,129.53342 L 312.00643,131.38687 L 279.32643,112.52937 L 279.32643,111.62687 L 280.13393,111.15187 L 312.00643,129.53342 z "
   id="polygon99" />
<path
   d="M 312.38643,123.21687 L 311.57893,124.64187 L 284.59893,109.06187 L 285.40643,107.63687 L 312.38643,123.21687 z "
   id="polygon101" />
<path
   d="M 343.83143,111.15187 L 345.44643,112.10187 L 312.00643,131.38687 L 312.00643,129.53342 L 343.83143,111.15187 z "
   id="polygon103" />
<path
   d="M 343.83143,74.386875 L 344.63798,73.911875 L 345.44643,74.386875 L 345.44643,112.10187 L 343.83143,111.15187 L 343.83143,74.386875 z "
   id="polygon105" />
<path
   d="M 338.17892,77.189378 L 339.79297,77.189378 L 339.79297,108.34937 L 338.17892,108.34937 L 338.17892,77.189378 z "
   id="rect107" />
<path
   d="M 312.00643,56.004375 L 312.00643,54.151875 L 344.63798,72.961875 L 344.63798,73.911875 L 343.83143,74.386875 L 312.00643,56.004375 z "
   id="polygon109" />
<path
   d="M 280.13393,74.386875 L 278.51893,73.436875 L 312.00643,54.151875 L 312.00643,56.004375 L 280.13393,74.386875 z "
   id="polygon111" />
<path
   d="M 285.40643,77.854375 L 284.59893,76.476875 L 311.57893,60.895925 L 312.38643,62.274375 L 285.40643,77.854375 z "
   id="polygon113" />
<path
   d="M 280.13393,111.15187 L 279.32643,111.62687 L 278.51893,111.15187 L 278.51893,73.436875 L 280.13393,74.386875 L 280.13393,111.15187 z "
   id="polygon115" />
<path
   d="M 377.27143,54.151875 L 377.27143,56.004375 L 345.44643,74.386875 L 344.63798,73.911875 L 344.63798,72.961875 L 377.27143,54.151875 z "
   id="polygon117" />
<g
   id="g119"
   transform="matrix(0.95,0,0,0.95,14.287825,6.960625)">
	<path
   d="M 373.844,12.06 C 373.844,9.207 374.61,6.975 376.142,5.362 C 377.674,3.748 379.652,2.941 382.075,2.941 C 383.662,2.941 385.092,3.32 386.366,4.078 C 387.64,4.837 388.611,5.893 389.279,7.249 C 389.948,8.604 390.282,10.143 390.282,11.861 C 390.282,13.604 389.93,15.163 389.226,16.538 C 388.523,17.913 387.527,18.955 386.237,19.662 C 384.947,20.369 383.556,20.723 382.063,20.723 C 380.445,20.723 378.999,20.332 377.725,19.551 C 376.451,18.77 375.486,17.702 374.829,16.351 C 374.172,14.999 373.844,13.569 373.844,12.06 z M 376.188,12.089 C 376.188,14.159 376.745,15.79 377.859,16.982 C 378.973,18.174 380.371,18.769 382.051,18.769 C 383.763,18.769 385.172,18.167 386.279,16.964 C 387.384,15.761 387.938,14.054 387.938,11.843 C 387.938,10.445 387.702,9.224 387.228,8.181 C 386.755,7.138 386.064,6.329 385.153,5.755 C 384.242,5.181 383.22,4.894 382.087,4.894 C 380.477,4.894 379.091,5.447 377.93,6.552 C 376.769,7.657 376.188,9.503 376.188,12.089 z "
   id="path121" />
</g>
<path
   d="M 373.61298,28.833425 L 375.22893,28.833425 L 375.22893,56.715926 L 373.61298,56.715926 L 373.61298,28.833425 z "
   id="rect123" />
<path
   d="M 379.26642,28.833425 L 380.88047,28.833425 L 380.88047,56.715926 L 379.26642,56.715926 L 379.26642,28.833425 z "
   id="rect125" />
<g
   id="g127"
   transform="matrix(0.95,0,0,0.95,14.287825,6.960625)">
	<path
   d="M 409.616,79.925 L 409.616,62.738 L 411.956,62.738 L 420.96,76.227 L 420.96,62.738 L 423.148,62.738 L 423.148,79.926 L 420.808,79.926 L 411.804,66.437 L 411.804,79.926 L 409.616,79.926 L 409.616,79.925 z "
   id="path129" />
</g>
<g
   id="g131"
   transform="matrix(0.95,0,0,0.95,14.287825,6.960625)">
	<path
   d="M 409.726,99.875 L 409.726,82.688 L 412.007,82.688 L 412.007,89.751 L 420.898,89.751 L 420.898,82.688 L 423.179,82.688 L 423.179,99.876 L 420.898,99.876 L 420.898,91.782 L 412.007,91.782 L 412.007,99.876 L 409.726,99.876 L 409.726,99.875 z "
   id="path133" />
</g>
<path
   d="M 400.49893,67.545925 L 399.69143,68.970925 L 377.27143,56.004375 L 377.27143,54.151875 L 400.49893,67.545925 z "
   id="polygon135" />
<path
   d="M 438.59393,56.383425 L 439.40048,57.808425 L 438.11893,58.806875 L 437.07393,57.049375 L 438.59393,56.383425 z "
   id="polygon137" />
<path
   d="M 434.74643,57.999375 L 436.07548,60.326875 L 434.79393,61.324375 L 433.27393,58.616875 L 434.74643,57.999375 z "
   id="polygon139" />
<path
   d="M 430.94643,59.614375 L 432.79893,62.844375 L 431.46893,63.841875 L 429.42548,60.231875 L 430.94643,59.614375 z "
   id="polygon141" />
<path
   d="M 427.09893,61.229375 L 429.47393,65.361875 L 428.19143,66.358425 L 425.57893,61.845925 L 427.09893,61.229375 z "
   id="polygon143" />
<path
   d="M 423.25048,62.844375 L 426.14893,67.879375 L 424.86643,68.876875 L 421.73143,63.461875 L 423.25048,62.844375 z "
   id="polygon145" />
<path
   d="M 419.40393,64.458425 L 422.82393,70.395925 L 421.54143,71.394375 L 417.93143,65.076875 L 419.40393,64.458425 z "
   id="polygon147" />
<g
   id="g149"
   transform="matrix(0.95,0,0,0.95,14.287825,6.960625)">
	<path
   d="M 456.231,14.398 L 458.512,14.972 C 458.035,16.842 457.179,18.268 455.943,19.249 C 454.706,20.23 453.194,20.722 451.407,20.722 C 449.557,20.722 448.053,20.345 446.893,19.59 C 445.734,18.836 444.852,17.742 444.247,16.312 C 443.642,14.882 443.34,13.344 443.34,11.703 C 443.34,9.913 443.682,8.35 444.363,7.017 C 445.047,5.684 446.017,4.67 447.278,3.979 C 448.538,3.288 449.924,2.941 451.438,2.941 C 453.155,2.941 454.598,3.379 455.768,4.255 C 456.939,5.132 457.753,6.363 458.214,7.952 L 455.98,8.479 C 455.582,7.229 455.005,6.319 454.249,5.749 C 453.493,5.179 452.54,4.894 451.394,4.894 C 450.076,4.894 448.974,5.21 448.088,5.843 C 447.203,6.476 446.58,7.325 446.222,8.392 C 445.864,9.459 445.684,10.558 445.684,11.691 C 445.684,13.152 445.897,14.427 446.321,15.517 C 446.747,16.607 447.407,17.421 448.303,17.96 C 449.199,18.499 450.17,18.769 451.215,18.769 C 452.485,18.769 453.561,18.402 454.442,17.667 C 455.323,16.932 455.919,15.843 456.231,14.398 z "
   id="path151" />
	<path
   d="M 460.626,12.06 C 460.626,9.207 461.392,6.975 462.924,5.362 C 464.456,3.748 466.434,2.941 468.857,2.941 C 470.444,2.941 471.875,3.32 473.148,4.078 C 474.421,4.837 475.393,5.893 476.062,7.249 C 476.73,8.604 477.064,10.143 477.064,11.861 C 477.064,13.604 476.712,15.163 476.009,16.538 C 475.305,17.913 474.308,18.955 473.019,19.662 C 471.729,20.369 470.337,20.723 468.845,20.723 C 467.227,20.723 465.781,20.332 464.507,19.551 C 463.233,18.77 462.268,17.702 461.611,16.351 C 460.954,14.999 460.626,13.569 460.626,12.06 z M 462.97,12.089 C 462.97,14.159 463.527,15.79 464.641,16.982 C 465.755,18.174 467.153,18.769 468.833,18.769 C 470.545,18.769 471.954,18.167 473.061,16.964 C 474.168,15.761 474.72,14.054 474.72,11.843 C 474.72,10.445 474.484,9.224 474.011,8.181 C 473.537,7.138 472.845,6.329 471.935,5.755 C 471.025,5.181 470.002,4.894 468.869,4.894 C 467.259,4.894 465.873,5.447 464.712,6.552 C 463.551,7.657 462.97,9.503 462.97,12.089 z "
   id="path153" />
	<path
   d="M 479.294,12.06 C 479.294,9.207 480.06,6.975 481.592,5.362 C 483.124,3.748 485.102,2.941 487.525,2.941 C 489.112,2.941 490.543,3.32 491.816,4.078 C 493.089,4.837 494.061,5.893 494.73,7.249 C 495.398,8.604 495.732,10.143 495.732,11.861 C 495.732,13.604 495.38,15.163 494.677,16.538 C 493.973,17.913 492.976,18.955 491.687,19.662 C 490.397,20.369 489.005,20.723 487.513,20.723 C 485.895,20.723 484.449,20.332 483.175,19.551 C 481.901,18.77 480.936,17.702 480.279,16.351 C 479.622,14.999 479.294,13.569 479.294,12.06 z M 481.638,12.089 C 481.638,14.159 482.195,15.79 483.309,16.982 C 484.423,18.174 485.821,18.769 487.501,18.769 C 489.213,18.769 490.622,18.167 491.729,16.964 C 492.836,15.761 493.388,14.054 493.388,11.843 C 493.388,10.445 493.152,9.224 492.679,8.181 C 492.205,7.138 491.513,6.329 490.603,5.755 C 489.693,5.181 488.67,4.894 487.537,4.894 C 485.927,4.894 484.541,5.447 483.38,6.552 C 482.219,7.657 481.638,9.503 481.638,12.089 z "
   id="path155" />
</g>
<path
   d="M 441.68143,28.786875 L 443.29643,28.786875 L 443.29643,54.626875 L 441.68143,55.529375 L 441.68143,28.786875 z "
   id="polygon157" />
<path
   d="M 475.92893,73.436875 L 474.31298,74.386875 L 441.68143,55.529375 L 443.29643,54.626875 L 475.92893,73.436875 z "
   id="polygon159" />
<path
   d="M 475.92893,111.10437 L 474.31298,112.05437 L 474.31298,74.386875 L 475.92893,73.436875 L 475.92893,111.10437 z "
   id="polygon161" />
<g
   id="g163"
   transform="matrix(0.95,0,0,0.95,14.287825,6.960625)">
	<path
   d="M 524.882,133.348 L 527.163,133.922 C 526.686,135.792 525.83,137.218 524.594,138.199 C 523.357,139.18 521.845,139.672 520.058,139.672 C 518.208,139.672 516.704,139.295 515.544,138.54 C 514.385,137.786 513.503,136.692 512.898,135.262 C 512.293,133.832 511.991,132.294 511.991,130.653 C 511.991,128.863 512.333,127.3 513.014,125.967 C 513.698,124.634 514.668,123.62 515.929,122.929 C 517.189,122.238 518.575,121.891 520.089,121.891 C 521.806,121.891 523.249,122.329 524.419,123.205 C 525.59,124.082 526.404,125.313 526.865,126.902 L 524.631,127.429 C 524.233,126.179 523.656,125.269 522.9,124.699 C 522.144,124.129 521.191,123.844 520.045,123.844 C 518.727,123.844 517.625,124.16 516.739,124.793 C 515.854,125.426 515.231,126.275 514.873,127.342 C 514.515,128.409 514.335,129.508 514.335,130.641 C 514.335,132.102 514.548,133.377 514.972,134.467 C 515.398,135.557 516.058,136.371 516.954,136.91 C 517.85,137.449 518.821,137.719 519.866,137.719 C 521.136,137.719 522.212,137.352 523.093,136.617 C 523.974,135.882 524.569,134.793 524.882,133.348 z "
   id="path165" />
	<path
   d="M 529.276,131.01 C 529.276,128.157 530.042,125.925 531.574,124.312 C 533.106,122.698 535.084,121.891 537.507,121.891 C 539.094,121.891 540.525,122.27 541.798,123.028 C 543.071,123.787 544.043,124.843 544.712,126.199 C 545.38,127.554 545.714,129.093 545.714,130.811 C 545.714,132.554 545.362,134.113 544.659,135.488 C 543.955,136.863 542.958,137.905 541.669,138.612 C 540.379,139.319 538.987,139.673 537.495,139.673 C 535.877,139.673 534.431,139.282 533.157,138.501 C 531.883,137.72 530.918,136.652 530.261,135.301 C 529.604,133.949 529.276,132.519 529.276,131.01 z M 531.62,131.04 C 531.62,133.11 532.177,134.741 533.291,135.933 C 534.405,137.125 535.803,137.72 537.483,137.72 C 539.195,137.72 540.604,137.118 541.711,135.915 C 542.818,134.712 543.37,133.005 543.37,130.794 C 543.37,129.396 543.134,128.175 542.661,127.132 C 542.187,126.089 541.495,125.28 540.585,124.706 C 539.675,124.132 538.652,123.845 537.519,123.845 C 535.909,123.845 534.523,124.398 533.362,125.503 C 532.201,126.608 531.62,128.454 531.62,131.04 z "
   id="path167" />
	<path
   d="M 547.944,131.01 C 547.944,128.157 548.71,125.925 550.242,124.312 C 551.774,122.698 553.752,121.891 556.175,121.891 C 557.762,121.891 559.193,122.27 560.466,123.028 C 561.739,123.787 562.711,124.843 563.38,126.199 C 564.048,127.554 564.382,129.093 564.382,130.811 C 564.382,132.554 564.03,134.113 563.327,135.488 C 562.623,136.863 561.626,137.905 560.337,138.612 C 559.047,139.319 557.655,139.673 556.163,139.673 C 554.545,139.673 553.099,139.282 551.825,138.501 C 550.551,137.72 549.586,136.652 548.929,135.301 C 548.272,133.949 547.944,132.519 547.944,131.01 z M 550.288,131.04 C 550.288,133.11 550.845,134.741 551.959,135.933 C 553.073,137.125 554.471,137.72 556.151,137.72 C 557.863,137.72 559.272,137.118 560.379,135.915 C 561.486,134.712 562.038,133.005 562.038,130.794 C 562.038,129.396 561.802,128.175 561.329,127.132 C 560.855,126.089 560.163,125.28 559.253,124.706 C 558.343,124.132 557.32,123.845 556.187,123.845 C 554.577,123.845 553.191,124.398 552.03,125.503 C 550.869,126.608 550.288,128.454 550.288,131.04 z "
   id="path169" />
</g>
<path
   d="M 500.05893,125.06937 L 499.25048,126.44592 L 474.31298,112.05437 L 475.92893,111.10437 L 500.05893,125.06937 z "
   id="polygon171" />
<path
   style="fill:none;stroke:#000000;stroke-width:1.28250003"
   d="M 483.71893,7.601875 L 491.31893,7.601875 M 548.98393,120.31937 L 556.58393,120.31937 M 61.586425,213.08687 L 69.186425,213.08687 M 65.386425,209.28687 L 65.386425,216.88687"
   id="path173" />
<g
   id="g175"
   transform="matrix(0.95,0,0,0.95,14.287825,6.960625)">
	<path
   d="M 181.432,133.448 L 183.713,134.022 C 183.237,135.892 182.38,137.318 181.144,138.299 C 179.907,139.28 178.394,139.772 176.607,139.772 C 174.757,139.772 173.253,139.395 172.094,138.64 C 170.935,137.886 170.053,136.792 169.448,135.362 C 168.843,133.931 168.541,132.394 168.541,130.753 C 168.541,128.963 168.882,127.4 169.565,126.067 C 170.248,124.734 171.219,123.72 172.48,123.029 C 173.74,122.338 175.126,121.991 176.64,121.991 C 178.357,121.991 179.8,122.429 180.97,123.305 C 182.141,124.182 182.956,125.413 183.416,127.002 L 181.182,127.529 C 180.784,126.279 180.207,125.369 179.451,124.799 C 178.694,124.229 177.742,123.944 176.596,123.944 C 175.278,123.944 174.176,124.26 173.29,124.893 C 172.405,125.526 171.783,126.375 171.424,127.442 C 171.065,128.509 170.886,129.608 170.886,130.741 C 170.886,132.202 171.098,133.477 171.523,134.567 C 171.948,135.657 172.608,136.471 173.505,137.01 C 174.402,137.549 175.372,137.819 176.417,137.819 C 177.688,137.819 178.763,137.452 179.644,136.717 C 180.525,135.982 181.12,134.893 181.432,133.448 z "
   id="path177" />
	<path
   d="M 186.607,139.475 L 186.607,122.287 L 188.888,122.287 L 188.888,129.35 L 197.779,129.35 L 197.779,122.287 L 200.06,122.287 L 200.06,139.475 L 197.779,139.475 L 197.779,131.381 L 188.888,131.381 L 188.888,139.475 L 186.607,139.475 z "
   id="path179" />
</g>
<g
   id="g181"
   transform="matrix(0.95,0,0,0.95,14.287825,6.960625)">
	<path
   d="M 202.657,140.569 L 204.235,140.35 C 204.418,141.246 204.727,141.892 205.163,142.288 C 205.6,142.683 206.135,142.881 206.77,142.881 C 207.523,142.881 208.156,142.623 208.669,142.109 C 209.182,141.593 209.438,140.955 209.438,140.193 C 209.438,139.467 209.2,138.869 208.722,138.397 C 208.245,137.925 207.639,137.69 206.903,137.69 C 206.602,137.69 206.228,137.749 205.781,137.866 L 205.958,136.475 C 206.064,136.487 206.149,136.493 206.214,136.493 C 206.888,136.493 207.495,136.318 208.035,135.967 C 208.575,135.616 208.845,135.075 208.845,134.344 C 208.845,133.765 208.648,133.285 208.254,132.906 C 207.86,132.526 207.352,132.336 206.729,132.336 C 206.112,132.336 205.597,132.53 205.186,132.918 C 204.775,133.306 204.51,133.888 204.393,134.664 L 202.815,134.383 C 203.008,133.321 203.449,132.498 204.135,131.915 C 204.821,131.331 205.675,131.039 206.696,131.039 C 207.4,131.039 208.049,131.189 208.641,131.491 C 209.233,131.792 209.686,132.203 210.001,132.723 C 210.314,133.244 210.472,133.796 210.472,134.381 C 210.472,134.937 210.323,135.443 210.024,135.899 C 209.725,136.355 209.283,136.717 208.697,136.987 C 209.459,137.163 210.051,137.528 210.476,138.081 C 210.9,138.636 211.113,139.328 211.113,140.16 C 211.113,141.286 210.702,142.239 209.88,143.021 C 209.058,143.803 208.019,144.195 206.763,144.195 C 205.63,144.195 204.689,143.858 203.941,143.186 C 203.189,142.511 202.763,141.64 202.657,140.569 z "
   id="path183" />
</g>
<path
   d="M 180.62143,141.83688 L 182.23643,141.83688 L 182.23643,158.60438 L 180.62143,158.60438 L 180.62143,141.83688 z "
   id="rect185" />
<g
   id="g187"
   transform="matrix(0.95,0,0,0.95,14.287825,6.960625)">
	<path
   d="M 220.625,139.425 L 220.625,122.237 L 222.906,122.237 L 222.906,129.3 L 231.797,129.3 L 231.797,122.237 L 234.078,122.237 L 234.078,139.425 L 231.797,139.425 L 231.797,131.331 L 222.906,131.331 L 222.906,139.425 L 220.625,139.425 z "
   id="path189" />
	<path
   d="M 237.848,139.425 L 237.848,122.237 L 240.188,122.237 L 249.192,135.726 L 249.192,122.237 L 251.38,122.237 L 251.38,139.425 L 249.04,139.425 L 240.036,125.936 L 240.036,139.425 L 237.848,139.425 L 237.848,139.425 z "
   id="path191" />
</g>
<path
   d="M 245.93393,141.55187 L 247.54893,141.55187 L 247.54893,171.76187 L 245.93393,164.30437 L 245.93393,141.55187 z "
   id="polygon193" />
</svg>