<?xml version="1.0" encoding="UTF-8" standalone="no"?>
<!-- Generator: Adobe Illustrator 12.0.1, SVG Export Plug-In . SVG Version: 6.00 Build 51448)  -->
<svg
   xmlns:dc="http://purl.org/dc/elements/1.1/"
   xmlns:cc="http://web.resource.org/cc/"
   xmlns:rdf="http://www.w3.org/1999/02/22-rdf-syntax-ns#"
   xmlns:svg="http://www.w3.org/2000/svg"
   xmlns="http://www.w3.org/2000/svg"
   xmlns:sodipodi="http://sodipodi.sourceforge.net/DTD/sodipodi-0.dtd"
   xmlns:inkscape="http://www.inkscape.org/namespaces/inkscape"
   version="1.1"
   id="Layer_1"
   width="570.838"
   height="278.425"
   viewBox="0 0 570.838 278.425"
   style="overflow:visible;enable-background:new 0 0 570.838 278.425;"
   xml:space="preserve"
   sodipodi:version="0.32"
   inkscape:version="0.45.1"
   sodipodi:docname="5-Formyl-5,6,7,8-tetrahydrofolat.svg"
   inkscape:output_extension="org.inkscape.output.svg.inkscape"
   sodipodi:docbase="C:\"><metadata
   id="metadata196"><rdf:RDF><cc:Work
       rdf:about=""><dc:format>image/svg+xml</dc:format><dc:type
         rdf:resource="http://purl.org/dc/dcmitype/StillImage" /></cc:Work></rdf:RDF></metadata><defs
   id="defs194" /><sodipodi:namedview
   inkscape:window-height="579"
   inkscape:window-width="801"
   inkscape:pageshadow="2"
   inkscape:pageopacity="0.0"
   guidetolerance="10.0"
   gridtolerance="10.0"
   objecttolerance="10.0"
   borderopacity="1.0"
   bordercolor="#666666"
   pagecolor="#ffffff"
   id="base"
   inkscape:zoom="1.2560481"
   inkscape:cx="285.41901"
   inkscape:cy="139.21249"
   inkscape:window-x="154"
   inkscape:window-y="154"
   inkscape:current-layer="Layer_1" />
<g
   id="g3"
   transform="matrix(0.95,0,0,0.95,14.287825,6.960625)">
	<path
   d="M 48.825,198.976 L 48.825,181.788 L 51.106,181.788 L 51.106,188.851 L 59.997,188.851 L 59.997,181.788 L 62.278,181.788 L 62.278,198.976 L 59.997,198.976 L 59.997,190.882 L 51.106,190.882 L 51.106,198.976 L 48.825,198.976 z "
   id="path5" />
	<path
   d="M 66.048,198.976 L 66.048,181.788 L 68.388,181.788 L 77.392,195.277 L 77.392,181.788 L 79.58,181.788 L 79.58,198.976 L 77.24,198.976 L 68.236,185.487 L 68.236,198.976 L 66.048,198.976 z "
   id="path7" />
</g>
<g
   id="g9"
   transform="matrix(0.95,0,0,0.95,14.287825,6.960625)">
	<path
   d="M 100.416,258.476 L 100.416,241.288 L 102.756,241.288 L 111.76,254.777 L 111.76,241.288 L 113.948,241.288 L 113.948,258.476 L 111.608,258.476 L 102.604,244.987 L 102.604,258.476 L 100.416,258.476 z "
   id="path11" />
</g>
<g
   id="g13"
   transform="matrix(0.95,0,0,0.95,14.287825,6.960625)">
	<path
   d="M 100.525,278.425 L 100.525,261.237 L 102.806,261.237 L 102.806,268.3 L 111.697,268.3 L 111.697,261.237 L 113.978,261.237 L 113.978,278.425 L 111.697,278.425 L 111.697,270.331 L 102.806,270.331 L 102.806,278.425 L 100.525,278.425 z "
   id="path15" />
</g>
<path
   d="M 84.291425,224.25032 L 83.483925,224.67687 L 82.676425,224.25032 L 82.676425,198.07687 L 84.291425,198.07687 L 84.291425,224.25032 z "
   id="polygon17" />
<path
   d="M 77.023927,217.40842 L 78.638927,217.40842 L 78.638927,221.44592 L 77.023927,221.44592 L 77.023927,217.40842 z "
   id="rect19" />
<path
   d="M 77.023927,207.71937 L 78.638927,207.71937 L 78.638927,211.75687 L 77.023927,211.75687 L 77.023927,207.71937 z "
   id="rect21" />
<path
   d="M 77.023927,198.07687 L 78.638927,198.07687 L 78.638927,202.11437 L 77.023927,202.11437 L 77.023927,198.07687 z "
   id="rect23" />
<path
   d="M 106.75893,237.21592 L 105.95143,238.59437 L 83.483925,225.62687 L 83.483925,224.67687 L 84.291425,224.25032 L 106.75893,237.21592 z "
   id="polygon25" />
<path
   d="M 109.60893,232.32532 L 108.80143,233.70187 L 105.28643,231.70687 L 106.09393,230.28187 L 109.60893,232.32532 z "
   id="polygon27" />
<path
   d="M 101.34393,227.52687 L 100.53643,228.95187 L 97.021425,226.90842 L 97.828925,225.53187 L 101.34393,227.52687 z "
   id="polygon29" />
<path
   d="M 93.031425,222.77687 L 92.223925,224.15342 L 88.756425,222.11282 L 89.563925,220.73342 L 93.031425,222.77687 z "
   id="polygon31" />
<path
   d="M 147.98893,224.25032 L 148.79643,224.67687 L 148.79643,225.62687 L 126.28143,238.64092 L 125.47393,237.21592 L 147.98893,224.25032 z "
   id="polygon33" />
<path
   d="M 147.98893,187.48342 L 148.79643,187.00842 L 149.60393,187.48342 L 149.60393,224.25032 L 148.79643,224.67687 L 147.98893,224.25032 L 147.98893,187.48342 z "
   id="polygon35" />
<path
   d="M 142.33642,190.28782 L 143.95142,190.28782 L 143.95142,221.44687 L 142.33642,221.44687 L 142.33642,190.28782 z "
   id="rect37" />
<path
   d="M 116.16393,169.10187 L 116.16393,167.20187 L 148.79643,186.05842 L 148.79643,187.00842 L 147.98893,187.48342 L 116.16393,169.10187 z "
   id="polygon39" />
<path
   d="M 93.601425,182.11592 L 92.793925,180.69092 L 116.16393,167.20187 L 116.16393,169.10187 L 93.601425,182.11592 z "
   id="polygon41" />
<g
   id="g43"
   transform="matrix(0.95,0,0,0.95,14.287825,6.960625)">
	<path
   d="M 169.166,258.476 L 169.166,241.288 L 171.506,241.288 L 180.51,254.777 L 180.51,241.288 L 182.698,241.288 L 182.698,258.476 L 180.358,258.476 L 171.354,244.987 L 171.354,258.476 L 169.166,258.476 z "
   id="path45" />
</g>
<g
   id="g47"
   transform="matrix(0.95,0,0,0.95,14.287825,6.960625)">
	<path
   d="M 169.275,278.425 L 169.275,261.237 L 171.556,261.237 L 171.556,268.3 L 180.447,268.3 L 180.447,261.237 L 182.728,261.237 L 182.728,278.425 L 180.447,278.425 L 180.447,270.331 L 171.556,270.331 L 171.556,278.425 L 169.275,278.425 z "
   id="path49" />
</g>
<g
   id="g51"
   transform="matrix(0.95,0,0,0.95,14.287825,6.960625)">
	<path
   d="M 169.166,179.125 L 169.166,161.937 L 171.506,161.937 L 180.51,175.426 L 180.51,161.937 L 182.698,161.937 L 182.698,179.125 L 180.358,179.125 L 171.354,165.636 L 171.354,179.125 L 169.166,179.125 z "
   id="path53" />
</g>
<path
   d="M 172.07143,237.21592 L 171.26393,238.59437 L 148.79643,225.62687 L 148.79643,224.67687 L 149.60393,224.25032 L 172.07143,237.21592 z "
   id="polygon55" />
<path
   d="M 213.30143,224.25032 L 214.91643,225.15187 L 191.54643,238.64092 L 190.73893,237.21592 L 213.30143,224.25032 z "
   id="polygon57" />
<path
   d="M 213.30143,187.48342 L 214.10893,187.00842 L 214.91643,187.48342 L 214.91643,225.15187 L 213.30143,224.25032 L 213.30143,187.48342 z "
   id="polygon59" />
<path
   d="M 190.83393,174.51592 L 191.64143,173.09092 L 214.06143,186.05842 L 214.10893,187.00842 L 213.30143,187.48342 L 190.83393,174.51592 z "
   id="polygon61" />
<path
   d="M 149.60393,187.48342 L 148.79643,187.00842 L 148.79643,186.05842 L 171.21643,173.09092 L 172.02393,174.51592 L 149.60393,187.48342 z "
   id="polygon63" />
<path
   d="M 245.88643,164.30342 L 247.50143,171.80842 L 214.91643,187.48342 L 214.10893,187.00842 L 214.06143,186.05842 L 245.88643,164.30342 z "
   id="polygon65" />
<g
   id="g67"
   transform="matrix(0.95,0,0,0.95,14.287825,6.960625)">
	<path
   d="M 98.994,131.11 C 98.994,128.257 99.76,126.025 101.292,124.412 C 102.824,122.798 104.802,121.991 107.225,121.991 C 108.812,121.991 110.242,122.37 111.516,123.128 C 112.79,123.887 113.761,124.943 114.43,126.299 C 115.099,127.655 115.432,129.193 115.432,130.911 C 115.432,132.654 115.08,134.213 114.377,135.588 C 113.674,136.963 112.677,138.005 111.387,138.712 C 110.097,139.419 108.706,139.773 107.213,139.773 C 105.595,139.773 104.149,139.382 102.875,138.601 C 101.601,137.82 100.636,136.752 99.979,135.401 C 99.322,134.05 98.994,132.619 98.994,131.11 z M 101.338,131.14 C 101.338,133.21 101.895,134.841 103.009,136.033 C 104.123,137.225 105.521,137.82 107.201,137.82 C 108.913,137.82 110.322,137.218 111.429,136.015 C 112.535,134.812 113.088,133.105 113.088,130.894 C 113.088,129.496 112.852,128.275 112.379,127.232 C 111.906,126.189 111.214,125.38 110.303,124.806 C 109.392,124.232 108.37,123.945 107.237,123.945 C 105.627,123.945 104.241,124.498 103.08,125.603 C 101.919,126.708 101.338,128.554 101.338,131.14 z "
   id="path69" />
</g>
<path
   d="M 112.50643,141.88342 L 114.12143,141.88342 L 114.12143,169.76592 L 112.50643,169.76592 L 112.50643,141.88342 z "
   id="rect71" />
<path
   d="M 118.15893,141.88342 L 119.77393,141.88342 L 119.77393,169.76592 L 118.15893,169.76592 L 118.15893,141.88342 z "
   id="rect73" />
<g
   id="g75"
   transform="matrix(0.95,0,0,0.95,14.287825,6.960625)">
	<path
   d="M 0,255.875 L 0,238.687 L 2.281,238.687 L 2.281,245.75 L 11.172,245.75 L 11.172,238.687 L 13.453,238.687 L 13.453,255.875 L 11.172,255.875 L 11.172,247.781 L 2.281,247.781 L 2.281,255.875 L 0,255.875 z "
   id="path77" />
</g>
<g
   id="g79"
   transform="matrix(0.95,0,0,0.95,14.287825,6.960625)">
	<path
   d="M 24.774,258.859 L 24.774,260.375 L 16.243,260.375 C 16.231,259.994 16.293,259.628 16.429,259.276 C 16.647,258.696 16.996,258.125 17.477,257.563 C 17.957,257.001 18.647,256.352 19.547,255.616 C 20.943,254.463 21.889,253.552 22.387,252.882 C 22.885,252.212 23.134,251.577 23.134,250.979 C 23.134,250.353 22.909,249.826 22.459,249.395 C 22.009,248.965 21.422,248.75 20.699,248.75 C 19.933,248.75 19.322,248.979 18.863,249.438 C 18.404,249.897 18.172,250.532 18.166,251.343 L 16.541,251.171 C 16.652,249.955 17.072,249.029 17.801,248.393 C 18.529,247.755 19.507,247.437 20.735,247.437 C 21.974,247.437 22.955,247.78 23.677,248.466 C 24.399,249.152 24.76,250.002 24.76,251.016 C 24.76,251.532 24.654,252.039 24.443,252.537 C 24.232,253.035 23.88,253.56 23.39,254.111 C 22.899,254.662 22.086,255.418 20.95,256.379 C 19.999,257.177 19.388,257.717 19.117,258.002 C 18.846,258.285 18.621,258.571 18.444,258.858 L 24.774,258.858 L 24.774,258.859 z "
   id="path81" />
</g>
<g
   id="g83"
   transform="matrix(0.95,0,0,0.95,14.287825,6.960625)">
	<path
   d="M 27.773,255.875 L 27.773,238.687 L 30.113,238.687 L 39.117,252.176 L 39.117,238.687 L 41.305,238.687 L 41.305,255.875 L 38.965,255.875 L 29.961,242.386 L 29.961,255.875 L 27.773,255.875 z "
   id="path85" />
</g>
<path
   d="M 59.543925,239.45032 L 58.736425,238.07092 L 82.676425,224.25032 L 83.483925,224.67687 L 83.483925,225.62687 L 59.543925,239.45032 z "
   id="polygon87" />
<path
   d="M 56.741425,234.55687 L 55.933925,233.17842 L 59.401425,231.13782 L 60.208925,232.51437 L 56.741425,234.55687 z "
   id="polygon89" />
<path
   d="M 62.726425,231.08937 L 61.918925,229.71282 L 65.433925,227.66937 L 66.241425,229.04592 L 62.726425,231.08937 z "
   id="polygon91" />
<path
   d="M 68.758925,227.62092 L 67.951425,226.24437 L 71.418925,224.20187 L 72.226425,225.62687 L 68.758925,227.62092 z "
   id="polygon93" />
<path
   d="M 74.743925,224.15342 L 73.936425,222.77687 L 77.451425,220.73342 L 78.258925,222.15842 L 74.743925,224.15342 z "
   id="polygon95" />
<path
   d="M 278.51893,111.15187 L 279.32643,111.62687 L 279.32643,112.57687 L 256.81143,125.59092 L 256.00393,124.16592 L 278.51893,111.15187 z "
   id="polygon97" />
<path
   d="M 311.95893,129.53342 L 311.95893,131.43342 L 279.32643,112.57687 L 279.32643,111.62687 L 280.13393,111.15187 L 311.95893,129.53342 z "
   id="polygon99" />
<path
   d="M 312.38548,123.26437 L 311.57893,124.64092 L 284.59893,109.06282 L 285.40643,107.68342 L 312.38548,123.26437 z "
   id="polygon101" />
<path
   d="M 343.83143,111.15187 L 345.44643,112.10187 L 311.95893,131.43342 L 311.95893,129.53342 L 343.83143,111.15187 z "
   id="polygon103" />
<path
   d="M 343.83143,74.387825 L 344.63893,73.912825 L 345.44643,74.387825 L 345.44643,112.10187 L 343.83143,111.15187 L 343.83143,74.387825 z "
   id="polygon105" />
<path
   d="M 338.17892,77.189378 L 339.79392,77.189378 L 339.79392,108.35032 L 338.17892,108.35032 L 338.17892,77.189378 z "
   id="rect107" />
<path
   d="M 311.95893,56.003425 L 311.95893,54.151875 L 344.63893,73.008425 L 344.63893,73.912825 L 343.83143,74.387825 L 311.95893,56.003425 z "
   id="polygon109" />
<path
   d="M 280.13393,74.387825 L 278.51893,73.483425 L 311.95893,54.151875 L 311.95893,56.003425 L 280.13393,74.387825 z "
   id="polygon111" />
<path
   d="M 285.40643,77.901875 L 284.59893,76.476875 L 311.57893,60.895925 L 312.38548,62.320925 L 285.40643,77.901875 z "
   id="polygon113" />
<path
   d="M 280.13393,111.15187 L 279.32643,111.62687 L 278.51893,111.15187 L 278.51893,73.483425 L 280.13393,74.387825 L 280.13393,111.15187 z "
   id="polygon115" />
<path
   d="M 377.27143,54.151875 L 377.27143,56.051875 L 345.44643,74.387825 L 344.63893,73.912825 L 344.63893,73.008425 L 377.27143,54.151875 z "
   id="polygon117" />
<g
   id="g119"
   transform="matrix(0.95,0,0,0.95,14.287825,6.960625)">
	<path
   d="M 373.844,12.11 C 373.844,9.257 374.61,7.025 376.142,5.412 C 377.674,3.798 379.652,2.991 382.075,2.991 C 383.662,2.991 385.093,3.37 386.366,4.128 C 387.639,4.887 388.611,5.943 389.28,7.299 C 389.948,8.654 390.282,10.193 390.282,11.911 C 390.282,13.654 389.93,15.213 389.227,16.588 C 388.523,17.963 387.526,19.005 386.237,19.712 C 384.947,20.419 383.555,20.773 382.063,20.773 C 380.445,20.773 378.999,20.382 377.725,19.601 C 376.451,18.82 375.486,17.752 374.829,16.401 C 374.172,15.049 373.844,13.619 373.844,12.11 z M 376.188,12.14 C 376.188,14.21 376.745,15.841 377.859,17.033 C 378.973,18.225 380.371,18.82 382.051,18.82 C 383.763,18.82 385.172,18.218 386.279,17.015 C 387.386,15.812 387.938,14.105 387.938,11.894 C 387.938,10.496 387.702,9.275 387.229,8.232 C 386.755,7.189 386.063,6.38 385.153,5.806 C 384.243,5.232 383.22,4.945 382.087,4.945 C 380.477,4.945 379.091,5.498 377.93,6.603 C 376.769,7.708 376.188,9.554 376.188,12.14 z "
   id="path121" />
</g>
<path
   d="M 373.61393,28.833425 L 375.22798,28.833425 L 375.22798,56.715926 L 373.61393,56.715926 L 373.61393,28.833425 z "
   id="rect123" />
<path
   d="M 379.26642,28.833425 L 380.88142,28.833425 L 380.88142,56.715926 L 379.26642,56.715926 L 379.26642,28.833425 z "
   id="rect125" />
<g
   id="g127"
   transform="matrix(0.95,0,0,0.95,14.287825,6.960625)">
	<path
   d="M 409.615,79.925 L 409.615,62.737 L 411.955,62.737 L 420.959,76.226 L 420.959,62.737 L 423.147,62.737 L 423.147,79.925 L 420.807,79.925 L 411.803,66.436 L 411.803,79.925 L 409.615,79.925 z "
   id="path129" />
</g>
<g
   id="g131"
   transform="matrix(0.95,0,0,0.95,14.287825,6.960625)">
	<path
   d="M 409.725,99.875 L 409.725,82.688 L 412.006,82.688 L 412.006,89.751 L 420.897,89.751 L 420.897,82.688 L 423.178,82.688 L 423.178,99.876 L 420.897,99.876 L 420.897,91.782 L 412.006,91.782 L 412.006,99.876 L 409.725,99.876 L 409.725,99.875 z "
   id="path133" />
</g>
<path
   d="M 400.49798,67.594375 L 399.69143,68.970925 L 377.27143,56.051875 L 377.27143,54.151875 L 400.49798,67.594375 z "
   id="polygon135" />
<path
   d="M 438.59393,56.431875 L 439.40048,57.808425 L 438.11893,58.806875 L 437.07393,57.050325 L 438.59393,56.431875 z "
   id="polygon137" />
<path
   d="M 434.74643,58.045925 L 436.07548,60.326875 L 434.79393,61.325325 L 433.22548,58.664375 L 434.74643,58.045925 z "
   id="polygon139" />
<path
   d="M 430.89893,59.614375 L 432.75048,62.844375 L 431.46893,63.840925 L 429.42548,60.278425 L 430.89893,59.614375 z "
   id="polygon141" />
<path
   d="M 427.09893,61.228425 L 429.47393,65.362825 L 428.14393,66.358425 L 425.57893,61.894375 L 427.09893,61.228425 z "
   id="polygon143" />
<path
   d="M 423.25048,62.844375 L 426.14893,67.878425 L 424.86643,68.876875 L 421.73143,63.508425 L 423.25048,62.844375 z "
   id="polygon145" />
<path
   d="M 419.40393,64.458425 L 422.82298,70.395925 L 421.54143,71.394375 L 417.88393,65.076875 L 419.40393,64.458425 z "
   id="polygon147" />
<g
   id="g149"
   transform="matrix(0.95,0,0,0.95,14.287825,6.960625)">
	<path
   d="M 456.231,14.448 L 458.512,15.022 C 458.036,16.892 457.179,18.318 455.943,19.299 C 454.706,20.28 453.193,20.772 451.406,20.772 C 449.556,20.772 448.052,20.395 446.893,19.64 C 445.734,18.886 444.852,17.792 444.247,16.362 C 443.642,14.931 443.34,13.394 443.34,11.753 C 443.34,9.963 443.681,8.4 444.364,7.067 C 445.046,5.734 446.017,4.72 447.278,4.029 C 448.538,3.338 449.924,2.991 451.438,2.991 C 453.155,2.991 454.598,3.429 455.768,4.305 C 456.939,5.182 457.754,6.413 458.214,8.002 L 455.98,8.529 C 455.583,7.279 455.004,6.369 454.249,5.799 C 453.492,5.229 452.54,4.944 451.394,4.944 C 450.076,4.944 448.974,5.26 448.088,5.893 C 447.202,6.526 446.581,7.375 446.222,8.442 C 445.863,9.509 445.684,10.608 445.684,11.741 C 445.684,13.202 445.896,14.477 446.322,15.567 C 446.746,16.657 447.407,17.471 448.303,18.01 C 449.199,18.549 450.17,18.819 451.214,18.819 C 452.485,18.819 453.561,18.452 454.442,17.717 C 455.323,16.982 455.92,15.894 456.231,14.448 z "
   id="path151" />
	<path
   d="M 460.626,12.11 C 460.626,9.257 461.392,7.025 462.924,5.412 C 464.456,3.798 466.434,2.991 468.857,2.991 C 470.444,2.991 471.874,3.37 473.148,4.128 C 474.422,4.887 475.393,5.943 476.061,7.299 C 476.73,8.654 477.064,10.193 477.064,11.911 C 477.064,13.654 476.712,15.213 476.008,16.588 C 475.305,17.963 474.309,19.005 473.019,19.712 C 471.729,20.419 470.338,20.773 468.845,20.773 C 467.227,20.773 465.781,20.382 464.507,19.601 C 463.233,18.82 462.268,17.752 461.611,16.401 C 460.954,15.049 460.626,13.619 460.626,12.11 z M 462.97,12.14 C 462.97,14.21 463.527,15.841 464.641,17.033 C 465.755,18.225 467.153,18.82 468.833,18.82 C 470.545,18.82 471.954,18.218 473.061,17.015 C 474.166,15.812 474.72,14.105 474.72,11.894 C 474.72,10.496 474.484,9.275 474.01,8.232 C 473.537,7.189 472.846,6.38 471.935,5.806 C 471.024,5.232 470.002,4.945 468.869,4.945 C 467.259,4.945 465.873,5.498 464.712,6.603 C 463.551,7.708 462.97,9.554 462.97,12.14 z "
   id="path153" />
	<path
   d="M 479.294,12.11 C 479.294,9.257 480.06,7.025 481.592,5.412 C 483.124,3.798 485.102,2.991 487.525,2.991 C 489.112,2.991 490.542,3.37 491.816,4.128 C 493.09,4.887 494.061,5.943 494.729,7.299 C 495.398,8.654 495.732,10.193 495.732,11.911 C 495.732,13.654 495.38,15.213 494.676,16.588 C 493.973,17.963 492.977,19.005 491.687,19.712 C 490.397,20.419 489.006,20.773 487.513,20.773 C 485.895,20.773 484.449,20.382 483.175,19.601 C 481.901,18.82 480.936,17.752 480.279,16.401 C 479.622,15.049 479.294,13.619 479.294,12.11 z M 481.638,12.14 C 481.638,14.21 482.195,15.841 483.309,17.033 C 484.423,18.225 485.821,18.82 487.501,18.82 C 489.213,18.82 490.622,18.218 491.729,17.015 C 492.834,15.812 493.388,14.105 493.388,11.894 C 493.388,10.496 493.152,9.275 492.678,8.232 C 492.205,7.189 491.514,6.38 490.603,5.806 C 489.692,5.232 488.67,4.945 487.537,4.945 C 485.927,4.945 484.541,5.498 483.38,6.603 C 482.219,7.708 481.638,9.554 481.638,12.14 z "
   id="path155" />
</g>
<path
   d="M 441.68143,28.787825 L 443.29643,28.787825 L 443.29643,54.626875 L 441.68143,55.576875 L 441.68143,28.787825 z "
   id="polygon157" />
<path
   d="M 475.92893,73.483425 L 474.31298,74.387825 L 441.68143,55.576875 L 443.29643,54.626875 L 475.92893,73.483425 z "
   id="polygon159" />
<path
   d="M 475.92893,111.15187 L 474.31298,112.05342 L 474.31298,74.387825 L 475.92893,73.483425 L 475.92893,111.15187 z "
   id="polygon161" />
<g
   id="g163"
   transform="matrix(0.95,0,0,0.95,14.287825,6.960625)">
	<path
   d="M 524.881,133.397 L 527.162,133.971 C 526.686,135.841 525.83,137.267 524.594,138.248 C 523.356,139.229 521.844,139.721 520.057,139.721 C 518.207,139.721 516.703,139.344 515.543,138.589 C 514.385,137.835 513.502,136.741 512.898,135.311 C 512.293,133.88 511.99,132.343 511.99,130.702 C 511.99,128.912 512.332,127.349 513.014,126.016 C 513.696,124.683 514.667,123.669 515.929,122.978 C 517.189,122.287 518.575,121.94 520.089,121.94 C 521.806,121.94 523.249,122.378 524.419,123.254 C 525.589,124.131 526.404,125.362 526.864,126.951 L 524.63,127.478 C 524.233,126.228 523.655,125.318 522.9,124.748 C 522.142,124.178 521.191,123.893 520.045,123.893 C 518.727,123.893 517.625,124.209 516.738,124.842 C 515.853,125.475 515.231,126.324 514.873,127.391 C 514.514,128.457 514.334,129.557 514.334,130.69 C 514.334,132.151 514.547,133.426 514.972,134.516 C 515.397,135.606 516.057,136.42 516.953,136.959 C 517.849,137.498 518.82,137.768 519.865,137.768 C 521.136,137.768 522.211,137.401 523.092,136.666 C 523.973,135.931 524.569,134.843 524.881,133.397 z "
   id="path165" />
	<path
   d="M 529.275,131.06 C 529.275,128.207 530.041,125.975 531.574,124.362 C 533.105,122.748 535.084,121.941 537.506,121.941 C 539.094,121.941 540.524,122.32 541.797,123.078 C 543.071,123.837 544.043,124.893 544.711,126.249 C 545.379,127.605 545.713,129.143 545.713,130.861 C 545.713,132.604 545.361,134.163 544.658,135.538 C 543.955,136.913 542.958,137.955 541.668,138.662 C 540.379,139.369 538.987,139.723 537.494,139.723 C 535.877,139.723 534.43,139.332 533.156,138.551 C 531.882,137.77 530.918,136.702 530.26,135.351 C 529.602,134 529.275,132.568 529.275,131.06 z M 531.619,131.089 C 531.619,133.159 532.176,134.79 533.291,135.982 C 534.404,137.173 535.803,137.769 537.482,137.769 C 539.195,137.769 540.603,137.167 541.711,135.964 C 542.816,134.761 543.369,133.054 543.369,130.843 C 543.369,129.445 543.133,128.224 542.66,127.181 C 542.187,126.138 541.495,125.329 540.584,124.755 C 539.674,124.181 538.652,123.894 537.518,123.894 C 535.909,123.894 534.522,124.447 533.362,125.552 C 532.199,126.657 531.619,128.503 531.619,131.089 z "
   id="path167" />
	<path
   d="M 547.943,131.06 C 547.943,128.207 548.709,125.975 550.242,124.362 C 551.773,122.748 553.752,121.941 556.174,121.941 C 557.762,121.941 559.192,122.32 560.465,123.078 C 561.739,123.837 562.711,124.893 563.379,126.249 C 564.047,127.605 564.381,129.143 564.381,130.861 C 564.381,132.604 564.029,134.163 563.326,135.538 C 562.623,136.913 561.626,137.955 560.336,138.662 C 559.047,139.369 557.655,139.723 556.162,139.723 C 554.545,139.723 553.098,139.332 551.824,138.551 C 550.55,137.77 549.586,136.702 548.928,135.351 C 548.27,134 547.943,132.568 547.943,131.06 z M 550.287,131.089 C 550.287,133.159 550.844,134.79 551.959,135.982 C 553.072,137.173 554.471,137.769 556.15,137.769 C 557.863,137.769 559.271,137.167 560.379,135.964 C 561.484,134.761 562.037,133.054 562.037,130.843 C 562.037,129.445 561.801,128.224 561.328,127.181 C 560.855,126.138 560.163,125.329 559.252,124.755 C 558.342,124.181 557.32,123.894 556.186,123.894 C 554.577,123.894 553.19,124.447 552.03,125.552 C 550.867,126.657 550.287,128.503 550.287,131.089 z "
   id="path169" />
</g>
<path
   d="M 500.05893,125.06937 L 499.25048,126.44592 L 474.31298,112.05342 L 475.92893,111.15187 L 500.05893,125.06937 z "
   id="polygon171" />
<path
   style="fill:none;stroke:#000000;stroke-width:1.28250003"
   d="M 483.71893,7.601875 L 491.31893,7.601875 M 548.98393,120.31937 L 556.58393,120.31937 M 61.586425,213.08782 L 69.186425,213.08782 M 65.386425,209.28782 L 65.386425,216.88782"
   id="path173" />
<g
   id="g175"
   transform="matrix(0.95,0,0,0.95,14.287825,6.960625)">
	<path
   d="M 220.625,139.476 L 220.625,122.288 L 222.906,122.288 L 222.906,129.351 L 231.797,129.351 L 231.797,122.288 L 234.078,122.288 L 234.078,139.476 L 231.797,139.476 L 231.797,131.382 L 222.906,131.382 L 222.906,139.476 L 220.625,139.476 z "
   id="path177" />
	<path
   d="M 237.848,139.476 L 237.848,122.288 L 240.188,122.288 L 249.192,135.777 L 249.192,122.288 L 251.38,122.288 L 251.38,139.476 L 249.04,139.476 L 240.036,125.987 L 240.036,139.476 L 237.848,139.476 L 237.848,139.476 z "
   id="path179" />
</g>
<path
   d="M 245.88643,141.55187 L 247.50143,141.55187 L 247.50143,171.80842 L 245.88643,164.30342 L 245.88643,141.55187 z "
   id="polygon181" />
<g
   id="g183"
   transform="matrix(0.95,0,0,0.95,14.287825,6.960625)">
	<path
   d="M 132.494,131.11 C 132.494,128.257 133.26,126.025 134.792,124.412 C 136.324,122.798 138.302,121.991 140.725,121.991 C 142.312,121.991 143.742,122.37 145.016,123.128 C 146.29,123.887 147.261,124.943 147.93,126.299 C 148.599,127.655 148.932,129.193 148.932,130.911 C 148.932,132.654 148.58,134.213 147.877,135.588 C 147.174,136.963 146.177,138.005 144.887,138.712 C 143.597,139.419 142.206,139.773 140.713,139.773 C 139.095,139.773 137.649,139.382 136.375,138.601 C 135.101,137.82 134.136,136.752 133.479,135.401 C 132.822,134.05 132.494,132.619 132.494,131.11 z M 134.838,131.14 C 134.838,133.21 135.395,134.841 136.509,136.033 C 137.623,137.225 139.021,137.82 140.701,137.82 C 142.413,137.82 143.822,137.218 144.929,136.015 C 146.035,134.812 146.588,133.105 146.588,130.894 C 146.588,129.496 146.352,128.275 145.879,127.232 C 145.406,126.189 144.714,125.38 143.803,124.806 C 142.892,124.232 141.87,123.945 140.737,123.945 C 139.127,123.945 137.741,124.498 136.58,125.603 C 135.419,126.708 134.838,128.554 134.838,131.14 z "
   id="path185" />
	<path
   d="M 151.943,139.476 L 151.943,122.288 L 154.224,122.288 L 154.224,129.351 L 163.115,129.351 L 163.115,122.288 L 165.396,122.288 L 165.396,139.476 L 163.115,139.476 L 163.115,131.382 L 154.224,131.382 L 154.224,139.476 L 151.943,139.476 z "
   id="path187" />
	<path
   d="M 181.432,133.448 L 183.713,134.022 C 183.237,135.892 182.38,137.318 181.144,138.299 C 179.907,139.28 178.394,139.772 176.607,139.772 C 174.757,139.772 173.253,139.395 172.094,138.64 C 170.935,137.886 170.053,136.792 169.448,135.362 C 168.843,133.931 168.541,132.394 168.541,130.753 C 168.541,128.963 168.882,127.4 169.565,126.067 C 170.248,124.734 171.219,123.72 172.48,123.029 C 173.74,122.338 175.126,121.991 176.64,121.991 C 178.357,121.991 179.8,122.429 180.97,123.305 C 182.141,124.182 182.956,125.413 183.416,127.002 L 181.182,127.529 C 180.784,126.279 180.207,125.369 179.451,124.799 C 178.694,124.229 177.742,123.944 176.596,123.944 C 175.278,123.944 174.176,124.26 173.29,124.893 C 172.405,125.526 171.783,126.375 171.424,127.442 C 171.065,128.509 170.886,129.608 170.886,130.741 C 170.886,132.202 171.098,133.477 171.523,134.567 C 171.948,135.657 172.608,136.471 173.505,137.01 C 174.402,137.549 175.372,137.819 176.417,137.819 C 177.688,137.819 178.763,137.452 179.644,136.717 C 180.525,135.982 181.12,134.894 181.432,133.448 z "
   id="path189" />
</g>
<path
   d="M 180.62143,141.83782 L 182.23643,141.83782 L 182.23643,158.65187 L 180.62143,158.65187 L 180.62143,141.83782 z "
   id="rect191" />
</svg>