<?xml version="1.0" encoding="utf-8"?>
<!-- Generator: Adobe Illustrator 13.0.2, SVG Export Plug-In . SVG Version: 6.00 Build 14948)  -->
<!DOCTYPE svg PUBLIC "-//W3C//DTD SVG 1.1//EN" "http://www.w3.org/Graphics/SVG/1.1/DTD/svg11.dtd">
<svg version="1.1" id="Ebene_1" xmlns="http://www.w3.org/2000/svg" xmlns:xlink="http://www.w3.org/1999/xlink" x="0px" y="0px"
	 width="567.1px" height="289.73px" viewBox="0 0 567.1 289.73" enable-background="new 0 0 567.1 289.73" xml:space="preserve">
<g>
	<path d="M49.275,220.732v-17.18h2.273v7.055h8.93v-7.055h2.273v17.18h-2.273v-8.098h-8.93v8.098H49.275z"/>
	<path d="M66.514,220.732v-17.18h2.332l9.023,13.488v-13.488h2.18v17.18h-2.332l-9.023-13.5v13.5H66.514z"/>
</g>
<g>
	<path d="M100.932,280.287v-17.18h2.332l9.023,13.488v-13.488h2.18v17.18h-2.332l-9.023-13.5v13.5H100.932z"/>
</g>
<polygon points="74.005,250.487 73.155,250.987 72.305,250.487 72.305,222.987 74.005,222.987 "/>
<polygon points="97.805,264.237 96.955,265.688 73.155,251.987 73.155,250.987 74.005,250.487 "/>
<polygon points="100.755,259.088 99.905,260.537 78.705,248.287 79.555,246.838 "/>
<polygon points="141.055,250.487 141.905,250.987 141.905,251.987 118.355,265.537 117.505,264.088 "/>
<polygon points="141.055,211.787 141.905,211.287 142.755,211.787 142.755,250.487 141.905,250.987 141.055,250.487 "/>
<rect x="135.105" y="214.737" width="1.7" height="32.8"/>
<polygon points="107.505,192.438 107.505,190.487 141.905,210.338 141.905,211.287 141.055,211.787 "/>
<polygon points="83.955,206.037 83.105,204.588 107.505,190.487 107.505,192.438 "/>
<g>
	<path d="M169.633,280.287v-17.18h2.332l9.023,13.488v-13.488h2.18v17.18h-2.332l-9.023-13.5v13.5H169.633z"/>
</g>
<g>
	<path d="M169.633,200.892v-17.18h2.332l9.023,13.488v-13.488h2.18v17.18h-2.332l-9.023-13.5v13.5H169.633z"/>
</g>
<polygon points="166.555,264.237 165.705,265.688 141.905,251.987 141.905,250.987 142.755,250.487 "/>
<polygon points="209.755,250.487 211.455,251.487 187.155,265.537 186.305,264.037 "/>
<polygon points="204.255,246.838 205.105,248.287 184.205,260.338 183.355,258.888 "/>
<polygon points="209.755,211.787 210.605,211.287 211.455,211.787 211.455,251.487 209.755,250.487 "/>
<polygon points="186.305,198.237 187.155,196.787 210.605,210.338 210.605,211.287 209.755,211.787 "/>
<polygon points="183.355,203.388 184.205,201.938 205.105,213.987 204.255,215.487 "/>
<polygon points="142.755,211.787 141.905,211.287 141.905,210.338 165.705,196.588 166.555,198.037 "/>
<polygon points="244.105,190.987 245.805,191.987 211.455,211.787 210.605,211.287 210.605,210.338 "/>
<g>
	<path d="M5.002,280.225v-17.18h2.273v7.055h8.93v-7.055h2.273v17.18h-2.273v-8.098h-8.93v8.098H5.002z"/>
</g>
<g>
	<path d="M28.79,283.212v1.521h-8.517c-0.012-0.381,0.05-0.747,0.185-1.099c0.217-0.58,0.564-1.151,1.042-1.714
		s1.167-1.213,2.07-1.951c1.4-1.148,2.347-2.058,2.839-2.729s0.738-1.306,0.738-1.903c0-0.627-0.224-1.155-0.672-1.587
		c-0.448-0.43-1.033-0.646-1.753-0.646c-0.762,0-1.371,0.229-1.828,0.686s-0.688,1.09-0.694,1.898l-1.626-0.167
		c0.111-1.213,0.53-2.137,1.257-2.773c0.727-0.635,1.702-0.953,2.927-0.953c1.236,0,2.215,0.343,2.936,1.028
		s1.081,1.535,1.081,2.549c0,0.516-0.105,1.022-0.316,1.521s-0.561,1.022-1.05,1.573s-1.302,1.307-2.439,2.268
		c-0.949,0.797-1.559,1.338-1.828,1.622s-0.492,0.569-0.668,0.856H28.79z"/>
</g>
<g>
	<path d="M31.791,280.225v-17.18h2.332l9.023,13.488v-13.488h2.18v17.18h-2.332l-9.023-13.5v13.5H31.791z"/>
</g>
<polygon points="49.605,265.588 48.755,264.088 72.305,250.487 73.155,250.987 73.155,251.987 "/>
<g>
	<path d="M99.115,152.865c0-2.852,0.766-5.084,2.297-6.697s3.508-2.42,5.93-2.42c1.586,0,3.016,0.379,4.289,1.137
		s2.244,1.814,2.912,3.17s1.002,2.893,1.002,4.611c0,1.742-0.352,3.301-1.055,4.676s-1.699,2.416-2.988,3.123
		s-2.68,1.061-4.172,1.061c-1.617,0-3.063-0.391-4.336-1.172s-2.238-1.848-2.895-3.199S99.115,154.373,99.115,152.865z
		 M101.459,152.9c0,2.07,0.557,3.701,1.67,4.893s2.51,1.787,4.189,1.787c1.711,0,3.119-0.602,4.225-1.805s1.658-2.91,1.658-5.121
		c0-1.398-0.236-2.619-0.709-3.662s-1.164-1.852-2.074-2.426s-1.932-0.861-3.064-0.861c-1.609,0-2.994,0.553-4.154,1.658
		S101.459,150.314,101.459,152.9z"/>
</g>
<rect x="103.705" y="163.787" width="1.7" height="29.4"/>
<rect x="109.655" y="163.787" width="1.7" height="29.4"/>
<g>
	<path d="M221.078,161.279V144.1h2.273v7.055h8.93V144.1h2.273v17.18h-2.273v-8.098h-8.93v8.098H221.078z"/>
	<path d="M238.316,161.279V144.1h2.332l9.023,13.488V144.1h2.18v17.18h-2.332l-9.023-13.5v13.5H238.316z"/>
</g>
<polygon points="244.105,163.487 245.805,163.487 245.805,191.987 244.105,190.987 "/>
<polygon points="278.455,131.487 279.305,131.987 279.305,132.987 255.755,146.588 254.905,145.088 "/>
<polygon points="313.655,150.838 313.655,152.838 279.305,132.987 279.305,131.987 280.155,131.487 "/>
<polygon points="314.104,144.237 313.255,145.688 284.855,129.288 285.705,127.837 "/>
<polygon points="347.205,131.487 348.905,132.487 313.655,152.838 313.655,150.838 "/>
<polygon points="347.205,92.788 348.055,92.337 348.905,92.788 348.905,132.487 347.205,131.487 "/>
<rect x="341.255" y="95.737" width="1.7" height="32.85"/>
<polygon points="313.655,73.438 313.655,71.487 348.055,91.337 348.055,92.337 347.205,92.788 "/>
<polygon points="280.155,92.788 278.455,91.837 313.655,71.487 313.655,73.438 "/>
<polygon points="285.705,96.487 284.855,95.038 313.255,78.587 314.104,80.087 "/>
<polygon points="280.155,131.487 279.305,131.987 278.455,131.487 278.455,91.837 280.155,92.788 "/>
<polygon points="382.354,71.487 382.354,73.487 348.905,92.788 348.055,92.337 348.055,91.337 "/>
<g>
	<path d="M410.086,101.79V84.61h2.332l9.023,13.488V84.61h2.18v17.18h-2.332l-9.023-13.5v13.5H410.086z"/>
</g>
<g>
	<path d="M410.18,121.743v-17.18h2.273v7.055h8.93v-7.055h2.273v17.18h-2.273v-8.098h-8.93v8.098H410.18z"/>
</g>
<polygon points="407.005,85.737 406.155,87.188 382.354,73.487 382.354,71.487 "/>
<g>
	<path d="M373.965,33.923c0-2.852,0.766-5.084,2.297-6.697s3.508-2.42,5.93-2.42c1.586,0,3.016,0.379,4.289,1.137
		s2.244,1.814,2.912,3.17s1.002,2.893,1.002,4.611c0,1.742-0.352,3.301-1.055,4.676s-1.699,2.416-2.988,3.123
		s-2.68,1.061-4.172,1.061c-1.617,0-3.063-0.391-4.336-1.172s-2.238-1.848-2.895-3.199S373.965,35.431,373.965,33.923z
		 M376.309,33.958c0,2.07,0.557,3.701,1.67,4.893s2.51,1.787,4.189,1.787c1.711,0,3.119-0.602,4.225-1.805s1.658-2.91,1.658-5.121
		c0-1.398-0.236-2.619-0.709-3.662s-1.164-1.852-2.074-2.426s-1.932-0.861-3.064-0.861c-1.609,0-2.994,0.553-4.154,1.658
		S376.309,31.372,376.309,33.958z"/>
</g>
<rect x="378.555" y="44.837" width="1.7" height="29.35"/>
<rect x="384.505" y="44.837" width="1.7" height="29.35"/>
<polygon points="446.955,73.888 447.805,75.337 446.455,76.388 445.354,74.538 "/>
<polygon points="442.955,75.538 444.354,77.987 442.955,79.038 441.354,76.237 "/>
<polygon points="438.905,77.237 440.854,80.638 439.505,81.688 437.355,77.888 "/>
<polygon points="434.905,78.938 437.405,83.237 436.055,84.288 433.305,79.587 "/>
<polygon points="430.905,80.587 433.955,85.888 432.604,86.938 429.305,81.237 "/>
<polygon points="426.905,82.288 430.505,88.538 429.155,89.587 425.305,82.938 "/>
<polygon points="486.255,91.837 484.555,92.788 450.205,72.987 451.905,71.987 "/>
<polygon points="450.205,33.337 451.905,32.337 451.905,71.987 450.205,72.987 "/>
<g>
	<path d="M391.877,22.482V5.303h2.273v7.055h8.93V5.303h2.273v17.18h-2.273v-8.098h-8.93v8.098H391.877z"/>
	<path d="M408.447,14.115c0-2.852,0.766-5.084,2.297-6.697s3.508-2.42,5.93-2.42c1.586,0,3.016,0.379,4.289,1.137
		s2.244,1.814,2.912,3.17s1.002,2.893,1.002,4.611c0,1.742-0.352,3.301-1.055,4.676s-1.699,2.416-2.988,3.123
		s-2.68,1.061-4.172,1.061c-1.617,0-3.063-0.391-4.336-1.172s-2.238-1.848-2.895-3.199S408.447,15.623,408.447,14.115z
		 M410.791,14.15c0,2.07,0.557,3.701,1.67,4.893s2.51,1.787,4.189,1.787c1.711,0,3.119-0.602,4.225-1.805s1.658-2.91,1.658-5.121
		c0-1.398-0.236-2.619-0.709-3.662s-1.164-1.852-2.074-2.426s-1.932-0.861-3.064-0.861c-1.609,0-2.994,0.553-4.154,1.658
		S410.791,11.564,410.791,14.15z"/>
</g>
<polygon points="425.955,19.337 426.805,17.888 451.905,32.337 450.205,33.337 "/>
<g>
	<path d="M476.967,14.115c0-2.852,0.766-5.084,2.297-6.697s3.508-2.42,5.93-2.42c1.586,0,3.016,0.379,4.289,1.137
		s2.244,1.814,2.912,3.17s1.002,2.893,1.002,4.611c0,1.742-0.352,3.301-1.055,4.676s-1.699,2.416-2.988,3.123
		s-2.68,1.061-4.172,1.061c-1.617,0-3.063-0.391-4.336-1.172s-2.238-1.848-2.895-3.199S476.967,15.623,476.967,14.115z
		 M479.311,14.15c0,2.07,0.557,3.701,1.67,4.893s2.51,1.787,4.189,1.787c1.711,0,3.119-0.602,4.225-1.805s1.658-2.91,1.658-5.121
		c0-1.398-0.236-2.619-0.709-3.662s-1.164-1.852-2.074-2.426s-1.932-0.861-3.064-0.861c-1.609,0-2.994,0.553-4.154,1.658
		S479.311,11.564,479.311,14.15z"/>
</g>
<polygon points="473.555,15.438 474.405,16.888 448.505,31.837 447.655,30.388 "/>
<polygon points="476.555,20.587 477.405,22.038 451.455,36.987 450.604,35.538 "/>
<polygon points="486.255,131.487 484.555,132.438 484.555,92.788 486.255,91.837 "/>
<polygon points="520.605,151.287 518.855,152.287 484.555,132.438 486.255,131.487 "/>
<g>
	<path d="M511.316,192.524c0-2.852,0.766-5.084,2.297-6.697s3.508-2.42,5.93-2.42c1.586,0,3.016,0.379,4.289,1.137
		s2.244,1.814,2.912,3.17s1.002,2.893,1.002,4.611c0,1.742-0.352,3.301-1.055,4.676s-1.699,2.416-2.988,3.123
		s-2.68,1.061-4.172,1.061c-1.617,0-3.063-0.391-4.336-1.172s-2.238-1.848-2.895-3.199S511.316,194.032,511.316,192.524z
		 M513.66,192.56c0,2.07,0.557,3.701,1.67,4.893s2.51,1.787,4.189,1.787c1.711,0,3.119-0.602,4.225-1.805s1.658-2.91,1.658-5.121
		c0-1.398-0.236-2.619-0.709-3.662s-1.164-1.852-2.074-2.426s-1.932-0.861-3.064-0.861c-1.609,0-2.994,0.553-4.154,1.658
		S513.66,189.974,513.66,192.56z"/>
	<path d="M530.746,200.892v-17.18h2.273v7.055h8.93v-7.055h2.273v17.18h-2.273v-8.098h-8.93v8.098H530.746z"/>
</g>
<polygon points="520.605,181.138 518.855,181.138 518.855,152.287 520.605,151.287 "/>
<g>
	<path d="M545.668,133.071c0-2.852,0.766-5.084,2.297-6.697s3.508-2.42,5.93-2.42c1.586,0,3.016,0.379,4.289,1.137
		s2.244,1.814,2.912,3.17s1.002,2.893,1.002,4.611c0,1.742-0.352,3.301-1.055,4.676s-1.699,2.416-2.988,3.123
		s-2.68,1.061-4.172,1.061c-1.617,0-3.063-0.391-4.336-1.172s-2.238-1.848-2.895-3.199S545.668,134.579,545.668,133.071z
		 M548.012,133.106c0,2.07,0.557,3.701,1.67,4.893s2.51,1.787,4.189,1.787c1.711,0,3.119-0.602,4.225-1.805s1.658-2.91,1.658-5.121
		c0-1.398-0.236-2.619-0.709-3.662s-1.164-1.852-2.074-2.426s-1.932-0.861-3.064-0.861c-1.609,0-2.994,0.553-4.154,1.658
		S548.012,130.521,548.012,133.106z"/>
</g>
<polygon points="542.255,134.388 543.105,135.837 517.205,150.787 516.355,149.338 "/>
<polygon points="545.205,139.538 546.055,140.987 520.155,155.938 519.305,154.487 "/>
</svg>
